<svg xmlns="http://www.w3.org/2000/svg" viewBox="0 0 48 48"><title>15-jude_1</title><g id="_16-news" data-name="16-news"><path d="M40,23H38V2H8V4H6V1A1,1,0,0,1,7,0H39a1,1,0,0,1,1,1Z"/><path d="M43,48a5.006,5.006,0,0,1-5-5h2a3,3,0,0,0,6,0V15H42V13h5a1,1,0,0,1,1,1V43A5.006,5.006,0,0,1,43,48Z"/><path d="M43,48H11a5.006,5.006,0,0,1-5-5V24H8V43a3,3,0,0,0,3,3H43Z"/><path d="M16,25a1,1,0,0,1-.707-.293L12.586,22H3a3,3,0,0,1-3-3V9A3,3,0,0,1,3,6H21a3,3,0,0,1,3,3V19a3,3,0,0,1-3,3H17v2a1,1,0,0,1-1,1ZM3,8A1,1,0,0,0,2,9V19a1,1,0,0,0,1,1H13a1,1,0,0,1,.707.293L15,21.586V21a1,1,0,0,1,1-1h5a1,1,0,0,0,1-1V9a1,1,0,0,0-1-1Z"/><path d="M41,41H16a1,1,0,0,1-.707-1.707L20,34.586V28a3,3,0,0,1,3-3H41a3,3,0,0,1,3,3V38A3,3,0,0,1,41,41ZM18.414,39H41a1,1,0,0,0,1-1V28a1,1,0,0,0-1-1H23a1,1,0,0,0-1,1v7a1,1,0,0,1-.293.707Z"/><path d="M36,9H34V7a1,1,0,0,0-1-1H31V4h2a3,3,0,0,1,3,3Z"/><rect x="27" y="4" width="2" height="2"/><rect x="26" y="11" width="10" height="2"/><rect x="26" y="15" width="10" height="2"/><rect x="26" y="19" width="10" height="2"/><rect x="10" y="30" width="8" height="2"/><rect x="10" y="34" width="7" height="2"/><rect x="10" y="38" width="3" height="2"/><path d="M8,17a3,3,0,1,1,3-3A3,3,0,0,1,8,17Zm0-4a1,1,0,1,0,1,1A1,1,0,0,0,8,13Z"/><path d="M16,17a3,3,0,1,1,3-3A3,3,0,0,1,16,17Zm0-4a1,1,0,1,0,1,1A1,1,0,0,0,16,13Z"/><path d="M28,36a3,3,0,1,1,3-3A3,3,0,0,1,28,36Zm0-4a1,1,0,1,0,1,1A1,1,0,0,0,28,32Z"/><path d="M36,36a3,3,0,1,1,3-3A3,3,0,0,1,36,36Zm0-4a1,1,0,1,0,1,1A1,1,0,0,0,36,32Z"/></g></svg>